<?xml version="1.0" encoding="UTF-8" standalone="no"?>
<!DOCTYPE svg PUBLIC "-//W3C//DTD SVG 1.1//EN"
 "http://www.w3.org/Graphics/SVG/1.1/DTD/svg11.dtd">
<!-- Generated by graphviz version 12.2.1 (0)
 -->
<!-- Pages: 1 -->
<svg width="665pt" height="271pt"
 viewBox="0.00 0.00 665.40 270.96" xmlns="http://www.w3.org/2000/svg" xmlns:xlink="http://www.w3.org/1999/xlink">
<g id="graph0" class="graph" transform="scale(1 1) rotate(0) translate(4 266.96)">
<polygon fill="white" stroke="none" points="-4,4 -4,-266.96 661.4,-266.96 661.4,4 -4,4"/>
<g id="clust1" class="cluster">
<title>cluster_main</title>
<polygon fill="none" stroke="black" points="8,-57.56 8,-252.49 649.4,-252.49 649.4,-57.56 8,-57.56"/>
<text text-anchor="middle" x="328.7" y="-235.19" font-family="Times,serif" font-size="14.00">dook.xdp.cz</text>
</g>
<!-- zonefile -->
<g id="node1" class="node">
<title>zonefile</title>
<polygon fill="none" stroke="black" points="80.78,-156.24 16.03,-156.24 16.03,-120.24 86.78,-120.24 86.78,-150.24 80.78,-156.24"/>
<polyline fill="none" stroke="black" points="80.78,-156.24 80.78,-150.24"/>
<polyline fill="none" stroke="black" points="86.78,-150.24 80.78,-150.24"/>
<text text-anchor="middle" x="51.4" y="-133.57" font-family="Times,serif" font-size="14.00">zonefile</text>
</g>
<!-- signer1 -->
<g id="node2" class="node">
<title>signer1</title>
<ellipse fill="none" stroke="black" cx="172.4" cy="-91.24" rx="49.1" ry="18"/>
<text text-anchor="middle" x="172.4" y="-86.57" font-family="Times,serif" font-size="14.00">signer1</text>
</g>
<!-- zonefile&#45;&gt;signer1 -->
<g id="edge1" class="edge">
<title>zonefile&#45;&gt;signer1</title>
<path fill="none" stroke="black" d="M87.14,-124.52C99.81,-119.52 114.3,-113.79 127.65,-108.52"/>
<polygon fill="black" stroke="black" points="128.63,-111.9 136.64,-104.97 126.06,-105.39 128.63,-111.9"/>
</g>
<!-- signer2 -->
<g id="node3" class="node">
<title>signer2</title>
<ellipse fill="none" stroke="black" cx="172.4" cy="-186.24" rx="49.1" ry="18"/>
<text text-anchor="middle" x="172.4" y="-181.57" font-family="Times,serif" font-size="14.00">signer2</text>
</g>
<!-- zonefile&#45;&gt;signer2 -->
<g id="edge2" class="edge">
<title>zonefile&#45;&gt;signer2</title>
<path fill="none" stroke="black" d="M87.14,-152.25C99.92,-157.41 114.54,-163.31 127.99,-168.73"/>
<polygon fill="black" stroke="black" points="126.47,-171.89 137.05,-172.39 129.09,-165.4 126.47,-171.89"/>
</g>
<!-- signer1&#45;&gt;signer2 -->
<g id="edge3" class="edge">
<title>signer1&#45;&gt;signer2</title>
<path fill="none" stroke="black" d="M172.4,-120.66C172.4,-132.14 172.4,-145.27 172.4,-156.75"/>
<polygon fill="black" stroke="black" points="175.9,-121.07 172.4,-111.07 168.9,-121.07 175.9,-121.07"/>
<polygon fill="black" stroke="black" points="168.9,-156.47 172.4,-166.47 175.9,-156.47 168.9,-156.47"/>
<text text-anchor="middle" x="160.78" y="-134.07" font-family="Times,serif" font-size="14.00">key&#45;sync</text>
</g>
<!-- validator1 -->
<g id="node4" class="node">
<title>validator1</title>
<ellipse fill="none" stroke="black" cx="402.4" cy="-94.24" rx="62.26" ry="18"/>
<text text-anchor="middle" x="402.4" y="-89.57" font-family="Times,serif" font-size="14.00">validator1</text>
</g>
<!-- signer1&#45;&gt;validator1 -->
<g id="edge4" class="edge">
<title>signer1&#45;&gt;validator1</title>
<path fill="none" stroke="black" d="M233.05,-92.03C262.4,-92.41 298.02,-92.88 328.92,-93.29"/>
<polygon fill="black" stroke="black" points="233.31,-88.53 223.27,-91.9 233.22,-95.53 233.31,-88.53"/>
<polygon fill="black" stroke="black" points="328.52,-96.78 338.56,-93.41 328.61,-89.78 328.52,-96.78"/>
</g>
<!-- validator2 -->
<g id="node5" class="node">
<title>validator2</title>
<ellipse fill="none" stroke="black" cx="402.4" cy="-165.24" rx="62.26" ry="18"/>
<text text-anchor="middle" x="402.4" y="-160.57" font-family="Times,serif" font-size="14.00">validator2</text>
</g>
<!-- signer1&#45;&gt;validator2 -->
<g id="edge6" class="edge">
<title>signer1&#45;&gt;validator2</title>
<path fill="none" stroke="black" d="M220.85,-106.64C258.35,-118.81 310.66,-135.79 349.32,-148.34"/>
<polygon fill="black" stroke="black" points="222.07,-103.36 211.47,-103.6 219.9,-110.01 222.07,-103.36"/>
<polygon fill="black" stroke="black" points="347.81,-151.53 358.4,-151.28 349.97,-144.87 347.81,-151.53"/>
</g>
<!-- ns1x -->
<g id="node6" class="node">
<title>ns1x</title>
<ellipse fill="none" stroke="black" cx="402.4" cy="-23.24" rx="64.36" ry="18"/>
<text text-anchor="middle" x="402.4" y="-18.57" font-family="Times,serif" font-size="14.00">ns1.xdp.cz</text>
</g>
<!-- signer1&#45;&gt;ns1x -->
<g id="edge8" class="edge">
<title>signer1&#45;&gt;ns1x</title>
<path fill="none" stroke="black" d="M189.82,-74.01C202.4,-61.98 220.85,-46.76 240.28,-38.99 267.34,-28.17 298.92,-23.53 326.92,-21.84"/>
<polygon fill="black" stroke="black" points="326.93,-25.35 336.75,-21.37 326.6,-18.35 326.93,-25.35"/>
<text text-anchor="middle" x="280.4" y="-42.94" font-family="Times,serif" font-size="14.00">DS push</text>
</g>
<!-- signer2&#45;&gt;validator1 -->
<g id="edge7" class="edge">
<title>signer2&#45;&gt;validator1</title>
<path fill="none" stroke="black" stroke-dasharray="1,5" d="M217.23,-168.56C256.49,-152.71 313.93,-129.54 354.2,-113.29"/>
<polygon fill="black" stroke="black" points="215.92,-165.31 207.96,-172.3 218.54,-171.8 215.92,-165.31"/>
<polygon fill="black" stroke="black" points="355.44,-116.56 363.41,-109.57 352.82,-110.07 355.44,-116.56"/>
</g>
<!-- signer2&#45;&gt;validator2 -->
<g id="edge5" class="edge">
<title>signer2&#45;&gt;validator2</title>
<path fill="none" stroke="black" stroke-dasharray="1,5" d="M231.56,-180.88C262.05,-178.08 299.61,-174.62 331.65,-171.66"/>
<polygon fill="black" stroke="black" points="231.51,-177.37 221.87,-181.78 232.15,-184.34 231.51,-177.37"/>
<polygon fill="black" stroke="black" points="331.59,-175.19 341.23,-170.78 330.95,-168.22 331.59,-175.19"/>
<text text-anchor="middle" x="280.4" y="-183.99" font-family="Times,serif" font-size="14.00">XFR, notify</text>
</g>
<!-- signer2&#45;&gt;ns1x -->
<g id="edge9" class="edge">
<title>signer2&#45;&gt;ns1x</title>
<path fill="none" stroke="black" d="M190.9,-169.27C219.69,-142.03 279.68,-88.1 338.04,-53.24 343.73,-49.84 349.87,-46.53 356,-43.43"/>
<polygon fill="black" stroke="black" points="357.44,-46.62 364.89,-39.08 354.37,-40.33 357.44,-46.62"/>
</g>
<!-- ns1 -->
<g id="node7" class="node">
<title>ns1</title>
<ellipse fill="none" stroke="black" cx="612.4" cy="-93.24" rx="29.11" ry="18"/>
<text text-anchor="middle" x="612.4" y="-88.57" font-family="Times,serif" font-size="14.00">ns1</text>
</g>
<!-- validator1&#45;&gt;ns1 -->
<g id="edge10" class="edge">
<title>validator1&#45;&gt;ns1</title>
<path fill="none" stroke="black" d="M476.18,-93.89C508.24,-93.74 544.66,-93.56 571.62,-93.43"/>
<polygon fill="black" stroke="black" points="476.46,-90.39 466.48,-93.94 476.49,-97.39 476.46,-90.39"/>
<polygon fill="black" stroke="black" points="571.43,-96.93 581.41,-93.38 571.4,-89.93 571.43,-96.93"/>
</g>
<!-- ns2 -->
<g id="node8" class="node">
<title>ns2</title>
<ellipse fill="none" stroke="black" cx="612.4" cy="-163.24" rx="29.11" ry="18"/>
<text text-anchor="middle" x="612.4" y="-158.57" font-family="Times,serif" font-size="14.00">ns2</text>
</g>
<!-- validator1&#45;&gt;ns2 -->
<g id="edge12" class="edge">
<title>validator1&#45;&gt;ns2</title>
<path fill="none" stroke="black" stroke-dasharray="1,5" d="M455.29,-111.45C492.75,-123.88 542.38,-140.35 575.53,-151.34"/>
<polygon fill="black" stroke="black" points="456.53,-108.18 445.93,-108.35 454.32,-114.82 456.53,-108.18"/>
<polygon fill="black" stroke="black" points="574.07,-154.54 584.66,-154.37 576.27,-147.9 574.07,-154.54"/>
</g>
<!-- validator2&#45;&gt;ns1 -->
<g id="edge13" class="edge">
<title>validator2&#45;&gt;ns1</title>
<path fill="none" stroke="black" stroke-dasharray="1,5" d="M454.34,-147.61C492.01,-134.57 542.37,-117.13 575.8,-105.56"/>
<polygon fill="black" stroke="black" points="453.24,-144.28 444.94,-150.86 455.53,-150.9 453.24,-144.28"/>
<polygon fill="black" stroke="black" points="576.71,-108.95 585.01,-102.38 574.42,-102.34 576.71,-108.95"/>
</g>
<!-- validator2&#45;&gt;ns2 -->
<g id="edge11" class="edge">
<title>validator2&#45;&gt;ns2</title>
<path fill="none" stroke="black" d="M476.18,-164.54C508.24,-164.23 544.66,-163.88 571.62,-163.62"/>
<polygon fill="black" stroke="black" points="476.44,-161.04 466.48,-164.63 476.51,-168.04 476.44,-161.04"/>
<polygon fill="black" stroke="black" points="571.45,-167.12 581.41,-163.53 571.38,-160.13 571.45,-167.12"/>
<text text-anchor="middle" x="525.4" y="-168.37" font-family="Times,serif" font-size="14.00">XFR, notify</text>
</g>
<!-- ns1x&#45;&gt;ns1 -->
<g id="edge14" class="edge">
<title>ns1x&#45;&gt;ns1</title>
<path fill="none" stroke="blue" d="M465.04,-18.5C496.72,-18.64 534.97,-22.97 565.53,-38.99 577.65,-45.35 587.89,-56.39 595.6,-66.87"/>
<polygon fill="blue" stroke="blue" points="592.56,-68.63 601.09,-74.92 598.35,-64.69 592.56,-68.63"/>
<text text-anchor="middle" x="525.4" y="-42.94" font-family="Times,serif" font-size="14.00" fill="blue">NS, DS</text>
</g>
<!-- ns1x&#45;&gt;ns2 -->
<g id="edge15" class="edge">
<title>ns1x&#45;&gt;ns2</title>
<path fill="none" stroke="blue" d="M438.04,-38.57C447.49,-43.04 457.64,-48.11 466.76,-53.24 512.57,-78.99 524.63,-85.24 565.53,-118.24 573.64,-124.79 581.94,-132.55 589.21,-139.77"/>
<polygon fill="blue" stroke="blue" points="586.63,-142.14 596.14,-146.81 591.62,-137.23 586.63,-142.14"/>
</g>
</g>
</svg>
